<?xml version="1.0" encoding="UTF-8" standalone="no"?>
<!-- Generated by graphviz version 2.40.1 (20161225.0304)
 -->

<!-- Title: TD Pages: 1 -->

<svg
   width="599pt"
   height="685pt"
   viewBox="0.00 0.00 598.50 684.90"
   version="1.1"
   id="svg41"
   sodipodi:docname="prisma _final.svg"
   inkscape:version="1.4.4 (dcaf3e7d9e, 2026-05-05)"
   xmlns:inkscape="http://www.inkscape.org/namespaces/inkscape"
   xmlns:sodipodi="http://sodipodi.sourceforge.net/DTD/sodipodi-0.dtd"
   xmlns:xlink="http://www.w3.org/1999/xlink"
   xmlns="http://www.w3.org/2000/svg"
   xmlns:svg="http://www.w3.org/2000/svg">
  <defs
     id="defs41" />
  <sodipodi:namedview
     id="namedview41"
     pagecolor="#ffffff"
     bordercolor="#000000"
     borderopacity="0.25"
     inkscape:showpageshadow="2"
     inkscape:pageopacity="0.0"
     inkscape:pagecheckerboard="0"
     inkscape:deskcolor="#d1d1d1"
     inkscape:document-units="pt"
     inkscape:zoom="1.2864964"
     inkscape:cx="399.53475"
     inkscape:cy="487.75887"
     inkscape:window-width="2560"
     inkscape:window-height="1384"
     inkscape:window-x="0"
     inkscape:window-y="0"
     inkscape:window-maximized="1"
     inkscape:current-layer="a41" />
  <path
     fill="none"
     stroke="#000000"
     d="m 306.821,113.9 c 8.381,0 16.8431,0 25.2705,0"
     id="path2" />
  <polygon
     fill="#000000"
     stroke="#000000"
     points="338.346,-567 328.3459,-563.5001 328.346,-570.5001 "
     id="polygon2"
     transform="translate(4,680.9)" />
  <path
     fill="none"
     stroke="#000000"
     d="m 180.5,141.2193 c 0,22.8801 0,55.4445 0,78.7616"
     id="path3" />
  <polygon
     fill="#000000"
     stroke="#000000"
     points="176.5,-450.6117 173.0001,-460.6118 180.0001,-460.6117 "
     id="polygon3"
     transform="translate(4,680.9)" />
  <path
     fill="none"
     stroke="#000000"
     d="m 306.821,248.9 c 8.381,0 16.8431,0 25.2705,0"
     id="path4" />
  <polygon
     fill="#000000"
     stroke="#000000"
     points="338.346,-432 328.3459,-428.5001 328.346,-435.5001 "
     id="polygon4"
     transform="translate(4,680.9)" />
  <path
     fill="none"
     stroke="#000000"
     d="m 180.5,267.4418 c 0,7.4999 0,16.3337 0,24.6365"
     id="path5" />
  <polygon
     fill="#000000"
     stroke="#000000"
     points="176.5,-378.7292 173.0001,-388.7292 180.0001,-388.7292 "
     id="polygon5"
     transform="translate(4,680.9)" />
  <path
     fill="none"
     stroke="#000000"
     d="m 306.821,320.9 c 8.381,0 16.8431,0 25.2705,0"
     id="path6" />
  <polygon
     fill="#000000"
     stroke="#000000"
     points="338.346,-360 328.3459,-356.5001 328.346,-363.5001 "
     id="polygon6"
     transform="translate(4,680.9)" />
  <path
     fill="none"
     stroke="#000000"
     d="m 180.5,339.2207 c 0,16.7568 0,41.8102 0,61.1807"
     id="path7" />
  <polygon
     fill="#000000"
     stroke="#000000"
     points="176.5,-270.4106 173.0001,-280.4106 180.0001,-280.4106 "
     id="polygon7"
     transform="translate(4,680.9)" />
  <path
     fill="none"
     stroke="#000000"
     d="m 180.5,447.4835 c 0,23.5479 0,64.9535 0,97.2408"
     id="path8" />
  <polygon
     fill="#000000"
     stroke="#000000"
     points="176.5,-126.0474 173.0001,-136.0474 180.0001,-136.0473 "
     id="polygon8"
     transform="translate(4,680.9)" />
  <path
     fill="none"
     stroke="#000000"
     d="m 306.821,428.9 c 8.381,0 16.8431,0 25.2705,0"
     id="path9" />
  <polygon
     fill="#000000"
     stroke="#000000"
     points="338.346,-252 328.3459,-248.5001 328.346,-255.5001 "
     id="polygon9"
     transform="translate(4,680.9)" />
  <a
     xlink:title="Blue identification box"
     id="a10"
     transform="translate(4,680.9)">
    <path
       fill="#bcd2ee"
       stroke="#bcd2ee"
       d="m 19.3333,-630 c 0,0 -9.6666,0 -9.6666,0 -4.8334,0 -9.6667,4.8333 -9.6667,9.6667 0,0 0,106.6666 0,106.6666 0,4.8334 4.8333,9.6667 9.6667,9.6667 0,0 9.6666,0 9.6666,0 4.8334,0 9.6667,-4.8333 9.6667,-9.6667 0,0 0,-106.6666 0,-106.6666 C 29,-625.1667 24.1667,-630 19.3333,-630"
       id="path10" />
    <text
       text-anchor="middle"
       x="563.40002"
       y="16.5"
       font-family="Helvetica, sans-Serif"
       font-size="12px"
       fill="#000000"
       transform="rotate(-90)"
       id="text10">Identification</text>
  </a>
  <a
     xlink:title="Blue screening box"
     id="a11"
     transform="translate(4,680.9)">
    <path
       fill="#bcd2ee"
       stroke="#bcd2ee"
       d="m 19.3333,-450 c 0,0 -9.6666,0 -9.6666,0 -4.8334,0 -9.6667,4.8333 -9.6667,9.6667 0,0 0,232.6666 0,232.6666 0,4.8334 4.8333,9.6667 9.6667,9.6667 0,0 9.6666,0 9.6666,0 4.8334,0 9.6667,-4.8333 9.6667,-9.6667 0,0 0,-232.6666 0,-232.6666 C 29,-445.1667 24.1667,-450 19.3333,-450"
       id="path11" />
    <text
       text-anchor="middle"
       x="320.39999"
       y="16.5"
       font-family="Helvetica, sans-Serif"
       font-size="12px"
       fill="#000000"
       transform="rotate(-90)"
       id="text11">Screening</text>
  </a>
  <a
     xlink:title="Blue included box"
     id="a12"
     transform="translate(4,680.9)">
    <path
       fill="#bcd2ee"
       stroke="#bcd2ee"
       d="m 19.3333,-180 c 0,0 -9.6666,0 -9.6666,0 -4.8334,0 -9.6667,4.8333 -9.6667,9.6667 0,0 0,160.6666 0,160.6666 C 0,-4.8333 4.8333,0 9.6667,0 c 0,0 9.6666,0 9.6666,0 C 24.1667,0 29,-4.8333 29,-9.6667 c 0,0 0,-160.6666 0,-160.6666 C 29,-175.1667 24.1667,-180 19.3333,-180"
       id="path12" />
    <text
       text-anchor="middle"
       x="86.400002"
       y="16.5"
       font-family="Helvetica, sans-Serif"
       font-size="12px"
       fill="#000000"
       transform="rotate(-90)"
       id="text12">Included</text>
  </a>
  <a
     xlink:title="Yellow title box; Identification of new studies via databases and registers"
     id="a13"
     transform="translate(4,680.9)">
    <path
       fill="#ffc125"
       stroke="#ffc125"
       d="m 580.8333,-676.9 c 0,0 -520.6666,0 -520.6666,0 -4.8334,0 -9.6667,4.8333 -9.6667,9.6667 0,0 0,9.6666 0,9.6666 0,4.8334 4.8333,9.6667 9.6667,9.6667 0,0 520.6666,0 520.6666,0 4.8334,0 9.6667,-4.8333 9.6667,-9.6667 0,0 0,-9.6666 0,-9.6666 0,-4.8334 -4.8333,-9.6667 -9.6667,-9.6667"
       id="path13" />
    <text
       text-anchor="middle"
       x="320.5"
       y="-658.79999"
       font-family="Helvetica, sans-Serif"
       font-size="12px"
       fill="#000000"
       id="text13">Identification of new studies via databases and registers</text>
  </a>
  <a
     xlink:title="Records identified from: Databases and Registers"
     id="a16"
     transform="translate(4,680.9)">
    <polygon
       fill="none"
       stroke="#000000"
       points="50.5,-540 302.5,-540 302.5,-594 50.5,-594 "
       id="polygon14" />
    <text
       text-anchor="middle"
       x="176.5"
       y="-577.79999"
       font-family="Helvetica, sans-Serif"
       font-size="12px"
       fill="#000000"
       id="text14">Records identified from:</text>
    <text
       text-anchor="middle"
       x="176.5"
       y="-563.40002"
       font-family="Helvetica, sans-Serif"
       font-size="12px"
       fill="#000000"
       id="text15">Databases (n = 4,145)</text>
  </a>
  <a
     xlink:title="Duplicate records"
     id="a21"
     transform="translate(4,680.9)">
    <polygon
       fill="none"
       stroke="#000000"
       points="338.5,-607 338.5,-527 590.5,-527 590.5,-607 "
       id="polygon16"
       transform="matrix(1.0006395,0,0,0.70315863,-0.2970685,-169.1834)" />
    <text
       text-anchor="middle"
       x="464.5"
       y="-577.20245"
       font-family="Helvetica, sans-Serif"
       font-size="12px"
       fill="#000000"
       id="text17">Records removed before screening:</text>
    <text
       text-anchor="middle"
       x="464.5"
       y="-562.80243"
       font-family="Helvetica, sans-Serif"
       font-size="12px"
       fill="#000000"
       id="text18">Duplicate records (n = 1,220)</text>
  </a>
  <a
     xlink:title="Records screened (databases and registers)"
     id="a23"
     transform="translate(4,680.9)">
    <polygon
       fill="none"
       stroke="#000000"
       points="50.5,-413.6995 302.5,-413.6995 302.5,-450.3005 50.5,-450.3005 "
       id="polygon21" />
    <text
       text-anchor="middle"
       x="176.5"
       y="-435.60001"
       font-family="Helvetica, sans-Serif"
       font-size="12px"
       fill="#000000"
       id="text22">Records screened</text>
    <text
       text-anchor="middle"
       x="176.5"
       y="-421.20001"
       font-family="Helvetica, sans-Serif"
       font-size="12px"
       fill="#000000"
       id="text23">(n = 2,925)</text>
  </a>
  <a
     xlink:title="Records excluded (databases and registers)"
     id="a25"
     transform="translate(4,680.9)">
    <polygon
       fill="none"
       stroke="#000000"
       points="338.5,-413.6995 590.5,-413.6995 590.5,-450.3005 338.5,-450.3005 "
       id="polygon23" />
    <text
       text-anchor="middle"
       x="464.5"
       y="-435.60001"
       font-family="Helvetica, sans-Serif"
       font-size="12px"
       fill="#000000"
       id="text24">Records excluded</text>
    <text
       text-anchor="middle"
       x="464.5"
       y="-421.20001"
       font-family="Helvetica, sans-Serif"
       font-size="12px"
       fill="#000000"
       id="text25">(n = 2,408)</text>
  </a>
  <a
     xlink:title="Reports sought for retrieval (databases and registers)"
     id="a27"
     transform="translate(4,680.9)">
    <polygon
       fill="none"
       stroke="#000000"
       points="50.5,-341.6995 302.5,-341.6995 302.5,-378.3005 50.5,-378.3005 "
       id="polygon25" />
    <text
       text-anchor="middle"
       x="176.5"
       y="-363.60001"
       font-family="Helvetica, sans-Serif"
       font-size="12px"
       fill="#000000"
       id="text26">Reports sought for retrieval</text>
    <text
       text-anchor="middle"
       x="176.5"
       y="-349.20001"
       font-family="Helvetica, sans-Serif"
       font-size="12px"
       fill="#000000"
       id="text27">(n = 517)</text>
  </a>
  <a
     xlink:title="Reports not retrieved (databases and registers)"
     id="a29"
     transform="translate(4,680.9)">
    <polygon
       fill="none"
       stroke="#000000"
       points="338.5,-341.6995 590.5,-341.6995 590.5,-378.3005 338.5,-378.3005 "
       id="polygon27" />
    <text
       text-anchor="middle"
       x="464.5"
       y="-363.60001"
       font-family="Helvetica, sans-Serif"
       font-size="12px"
       fill="#000000"
       id="text28">Reports not retrieved</text>
    <text
       text-anchor="middle"
       x="464.5"
       y="-349.20001"
       font-family="Helvetica, sans-Serif"
       font-size="12px"
       fill="#000000"
       id="text29">(n = 52)</text>
  </a>
  <a
     xlink:title="Reports assessed for eligibility (databases and registers)"
     id="a31"
     transform="translate(4,680.9)">
    <polygon
       fill="none"
       stroke="#000000"
       points="50.5,-233.6995 302.5,-233.6995 302.5,-270.3005 50.5,-270.3005 "
       id="polygon29" />
    <text
       text-anchor="middle"
       x="176.5"
       y="-255.60001"
       font-family="Helvetica, sans-Serif"
       font-size="12px"
       fill="#000000"
       id="text30">Reports assessed for eligibility</text>
    <text
       text-anchor="middle"
       x="176.5"
       y="-241.2"
       font-family="Helvetica, sans-Serif"
       font-size="12px"
       fill="#000000"
       id="text31">(n = 465)</text>
  </a>
  <a
     xlink:title="Reports excluded (databases and registers)"
     id="a37"
     transform="translate(4,680.9)">
    <polygon
       fill="#ffffff"
       stroke="#000000"
       points="338.5,-204.5991 590.5,-204.5991 590.5,-299.4009 338.5,-299.4009 "
       id="polygon31" />
    <text
       text-anchor="middle"
       x="464.5"
       y="-284.39999"
       font-family="Helvetica, sans-Serif"
       font-size="12px"
       fill="#000000"
       id="text32">Reports excluded: 214</text>
    <text
       text-anchor="middle"
       x="464.5"
       y="-270"
       font-family="Helvetica, sans-Serif"
       font-size="12px"
       fill="#000000"
       id="text33">Abstract only (n = 116)</text>
    <text
       text-anchor="middle"
       x="464.5"
       y="-255.60001"
       font-family="Helvetica, sans-Serif"
       font-size="12px"
       fill="#000000"
       id="text34">Single-arm (n = 41)</text>
    <text
       text-anchor="middle"
       x="464.5"
       y="-241.2"
       font-family="Helvetica, sans-Serif"
       font-size="12px"
       fill="#000000"
       id="text35">Review or MA (n = 32)</text>
    <text
       text-anchor="middle"
       x="464.5"
       y="-226.8"
       font-family="Helvetica, sans-Serif"
       font-size="12px"
       fill="#000000"
       id="text36">Duplicate (n = 13)</text>
    <text
       text-anchor="middle"
       x="464.5"
       y="-212.39999"
       font-family="Helvetica, sans-Serif"
       font-size="12px"
       fill="#000000"
       id="text37">Other (n = 12)</text>
  </a>
  <a
     xlink:title="New studies included in review"
     id="a41"
     transform="translate(4,680.9)">
    <polygon
       fill="none"
       stroke="#000000"
       points="302.5,-126 50.5,-126 50.5,-54 302.5,-54 "
       id="polygon37"
       transform="matrix(0.99984211,0,0,1.0817796,0.02786829,10.274625)" />
    <text
       text-anchor="middle"
       x="177.0829"
       y="-105.82587"
       font-family="Helvetica, sans-Serif"
       font-size="12px"
       fill="#000000"
       id="text38">New studies included in review</text>
    <text
       text-anchor="middle"
       x="177.0829"
       y="-91.425873"
       font-family="Helvetica, sans-Serif"
       font-size="12px"
       fill="#000000"
       id="text39"><tspan
         sodipodi:role="line"
         id="tspan41"
         x="177.0829"
         y="-91.425873">(n = 251)</tspan><tspan
         sodipodi:role="line"
         id="tspan42"
         x="177.0829"
         y="-76.425873">Extractable event counts</tspan><tspan
         sodipodi:role="line"
         x="177.0829"
         y="-61.425873"
         id="tspan44">(n=117)</tspan></text>
  </a>
</svg>
